<?xml version="1.0" standalone="no"?>
<!DOCTYPE svg PUBLIC "-//W3C//DTD SVG 20010904//EN"
 "http://www.w3.org/TR/2001/REC-SVG-20010904/DTD/svg10.dtd">
<svg version="1.0" xmlns="http://www.w3.org/2000/svg"
 width="162.000000pt" height="149.000000pt" viewBox="0 0 162.000000 149.000000"
 preserveAspectRatio="xMidYMid meet">

<g transform="translate(0.000000,149.000000) scale(0.100000,-0.100000)"
fill="#600D3F" stroke="none">
<path d="M744 1465 c-13 -32 24 -63 41 -35 3 6 -1 10 -9 10 -22 0 -30 19 -11
26 9 4 22 -1 30 -12 15 -19 15 -19 30 0 8 11 21 16 30 12 20 -7 10 -26 -13
-26 -12 0 -13 -3 -5 -11 18 -18 45 -2 41 23 -4 29 -37 36 -55 12 -13 -18 -15
-18 -24 -1 -12 21 -48 23 -55 2z"/>
<path d="M650 1436 c-18 -23 -8 -61 18 -64 17 -3 22 2 22 17 0 14 -5 19 -15
15 -11 -4 -15 0 -15 16 0 37 43 22 57 -20 7 -19 12 -30 12 -24 1 7 12 9 28 6
18 -3 30 1 40 13 13 18 13 18 26 0 10 -12 22 -16 40 -13 16 3 27 1 28 -6 0 -6
5 5 12 24 14 42 57 57 57 20 0 -16 -4 -20 -15 -16 -10 4 -15 -1 -15 -15 0 -30
44 -22 48 9 8 54 -45 69 -78 22 -24 -34 -56 -39 -76 -12 -13 16 -15 16 -28 0
-20 -27 -52 -22 -76 12 -23 32 -50 39 -70 16z"/>
<path d="M698 1343 c-6 -7 -20 -10 -32 -7 -26 6 -76 -30 -75 -54 0 -13 3 -11
9 5 18 44 76 51 94 11 3 -7 3 -2 0 11 -3 13 -2 21 3 18 5 -3 19 2 31 12 22 16
23 17 2 17 -12 0 -26 -6 -32 -13z"/>
<path d="M885 1343 c11 -7 25 -13 33 -13 9 0 12 -7 8 -22 -3 -13 -3 -17 0 -10
18 40 76 33 94 -11 6 -16 9 -18 9 -5 1 23 -49 60 -73 54 -11 -3 -26 0 -34 6
-7 7 -23 13 -34 13 -20 2 -20 1 -3 -12z"/>
<path d="M729 1313 c-13 -16 -12 -17 4 -4 9 7 17 15 17 17 0 8 -8 3 -21 -13z"/>
<path d="M870 1326 c0 -2 8 -10 18 -17 15 -13 16 -12 3 4 -13 16 -21 21 -21
13z"/>
<path d="M534 1265 c-4 -9 1 -32 10 -51 20 -43 20 -39 -6 -41 -16 -2 -19 0 -9
6 9 6 2 8 -20 6 -52 -4 -44 -29 11 -33 25 -2 50 -8 55 -14 7 -7 0 -8 -22 -3
-41 8 -73 -9 -73 -39 0 -33 10 -38 38 -20 23 15 24 15 17 -6 -4 -13 0 -31 10
-46 13 -20 19 -22 35 -14 11 6 20 21 19 33 l0 22 -9 -22 c-11 -28 -26 -29 -40
-4 -14 27 4 71 29 71 66 0 69 -116 5 -175 -33 -31 -123 -37 -120 -9 0 9 -5 19
-13 22 -8 3 -11 0 -7 -7 4 -6 2 -11 -4 -11 -18 0 -7 34 12 38 9 2 27 -8 39
-22 23 -26 53 -34 63 -17 4 5 -3 7 -13 4 -13 -3 -23 2 -31 17 -13 24 -4 43 10
20 12 -20 33 0 24 23 -8 22 -45 22 -50 0 -4 -16 -15 -17 -85 -13 -86 5 -109
19 -109 65 0 57 72 78 78 23 2 -16 -1 -28 -7 -28 -6 0 -8 7 -5 15 4 10 0 15
-11 15 -12 0 -16 -7 -13 -27 2 -20 9 -28 22 -28 42 0 47 73 6 95 -28 15 -55 5
-68 -26 -19 -39 -14 -63 17 -94 l29 -29 -57 -17 c-107 -33 -155 -21 -149 36 4
30 42 41 52 14 8 -21 -2 -33 -13 -15 -7 10 -10 10 -16 1 -10 -16 10 -34 30
-26 21 8 16 45 -7 60 -13 8 -23 8 -35 0 -21 -13 -29 -62 -14 -77 19 -19 12
-27 -24 -27 -27 0 -35 4 -35 18 0 14 2 15 10 2 8 -13 10 -12 10 3 0 20 -18 23
-26 3 -3 -8 -19 -16 -35 -20 -41 -8 -26 -29 17 -24 24 3 34 0 34 -10 0 -7 -5
-10 -12 -6 -7 4 -8 3 -4 -4 11 -18 26 -14 26 6 0 18 28 19 710 19 682 0 710
-1 710 -19 0 -20 15 -24 26 -6 4 7 3 8 -4 4 -7 -4 -12 -1 -12 6 0 10 10 13 34
10 43 -5 58 16 17 24 -16 4 -32 12 -35 20 -8 20 -26 17 -26 -3 0 -15 2 -16 10
-3 8 13 10 12 10 -2 0 -14 -8 -18 -35 -18 -36 0 -43 8 -24 27 15 15 7 64 -13
77 -13 8 -23 8 -35 0 -24 -15 -29 -52 -8 -60 20 -8 40 10 30 26 -6 9 -9 9 -16
-1 -11 -18 -21 -6 -13 15 10 27 48 16 52 -14 6 -57 -42 -69 -149 -36 l-57 17
29 29 c31 31 36 55 17 94 -13 31 -40 41 -68 26 -41 -22 -36 -95 6 -95 13 0 20
8 22 28 3 20 -1 27 -13 27 -11 0 -15 -5 -11 -15 3 -8 1 -15 -5 -15 -6 0 -9 12
-7 28 6 55 78 34 78 -23 0 -46 -23 -60 -109 -65 -70 -4 -81 -3 -85 13 -5 22
-42 22 -50 0 -9 -23 12 -43 24 -23 14 23 23 4 10 -20 -8 -15 -18 -20 -31 -17
-10 3 -17 1 -13 -4 10 -17 40 -9 63 17 12 14 30 24 39 22 19 -4 30 -38 12 -38
-6 0 -8 5 -4 11 4 7 1 10 -7 7 -8 -3 -13 -13 -13 -22 3 -28 -87 -22 -120 9
-64 59 -61 175 5 175 25 0 43 -44 29 -71 -14 -25 -29 -24 -40 4 l-9 22 0 -22
c-1 -12 8 -27 19 -33 16 -8 22 -6 35 14 10 15 14 33 10 46 -7 21 -6 21 17 6
28 -18 38 -13 38 20 0 30 -32 47 -73 39 -22 -5 -29 -4 -22 3 6 6 30 12 55 14
32 2 45 7 45 18 0 8 -7 14 -15 12 -27 -6 -70 -11 -70 -7 0 1 7 16 15 31 17 33
19 60 6 68 -11 7 -23 -22 -15 -35 3 -5 1 -9 -5 -9 -5 0 -12 -13 -16 -30 -4
-16 -10 -32 -15 -35 -4 -3 -6 5 -3 17 3 13 -6 1 -20 -27 -14 -27 -27 -65 -31
-82 -5 -31 5 -108 19 -145 6 -16 -8 -17 -185 -17 -177 0 -191 1 -185 17 14 37
24 114 19 145 -4 17 -17 55 -31 82 -14 28 -23 40 -20 27 3 -12 1 -20 -3 -17
-5 3 -11 19 -15 35 -4 17 -10 30 -15 30 -4 0 -6 8 -3 19 6 24 -15 38 -23 16z
m-109 -325 l0 -30 -94 0 c-52 0 -92 2 -90 5 7 6 151 53 169 54 10 1 15 -9 15
-29z m871 4 c46 -15 84 -28 84 -30 0 -2 -42 -4 -92 -4 l-93 0 0 30 c0 17 4 30
9 30 4 0 46 -12 92 -26z"/>
<path d="M701 1259 c0 -15 -8 -32 -16 -39 -16 -14 -45 -7 -45 11 0 6 7 9 15 5
9 -3 15 0 15 10 0 8 -7 17 -16 21 -16 6 -34 -12 -34 -34 0 -16 28 -43 45 -43
21 0 47 45 42 72 -4 21 -4 21 -6 -3z"/>
<path d="M812 1272 c-13 -4 -23 -11 -23 -17 0 -5 -11 -9 -24 -7 -24 3 -47 -19
-27 -26 8 -2 4 -10 -9 -21 -19 -15 -20 -19 -6 -24 11 -4 14 -2 11 7 -3 7 2 16
10 19 10 4 13 13 9 23 -5 14 -2 16 15 12 12 -4 26 0 33 8 10 12 14 12 25 -3
11 -15 15 -16 26 -4 11 12 10 13 -4 8 -12 -4 -18 -1 -18 9 0 9 5 12 12 8 7 -4
8 -3 4 4 -4 7 -8 12 -9 11 -1 -1 -12 -4 -25 -7z"/>
<path d="M911 1259 c-2 -38 29 -73 57 -65 24 8 36 35 26 60 -9 22 -31 20 -45
-5 -10 -19 -8 -20 10 -14 24 7 30 -12 6 -21 -21 -8 -43 12 -48 44 l-4 27 -2
-26z"/>
<path d="M866 1233 c-7 -18 17 -44 38 -42 6 0 1 5 -11 11 -27 13 -31 30 -5 22
10 -4 13 -2 7 3 -5 4 -13 12 -16 16 -4 4 -10 0 -13 -10z"/>
<path d="M1031 1234 c0 -11 3 -14 6 -6 3 7 2 16 -1 19 -3 4 -6 -2 -5 -13z"/>
<path d="M631 1164 c0 -11 3 -14 6 -6 3 7 2 16 -1 19 -3 4 -6 -2 -5 -13z"/>
<path d="M905 1167 c-13 -14 -14 -57 -3 -57 4 0 8 -8 7 -17 0 -11 -3 -13 -6
-5 -2 6 -9 12 -14 12 -6 0 -7 -5 -4 -10 3 -6 -1 -17 -10 -26 -18 -18 -16 -36
6 -42 11 -3 11 -2 -1 7 -13 9 -11 14 12 33 22 19 26 31 26 71 -1 26 -1 47 -2
47 -1 -1 -6 -6 -11 -13z"/>
<path d="M652 1140 c0 -14 2 -19 5 -12 2 6 2 18 0 25 -3 6 -5 1 -5 -13z"/>
<path d="M712 1135 c-16 -34 -15 -38 3 -31 8 3 15 1 15 -3 0 -5 -5 -11 -11
-13 -8 -3 -7 -9 3 -19 8 -8 13 -19 11 -26 -3 -9 46 -53 59 -53 2 0 4 9 5 21 2
17 -2 20 -22 15 -27 -7 -45 12 -24 25 11 6 10 9 -4 15 -11 4 -16 13 -12 24 3
10 1 21 -5 25 -6 4 -8 15 -5 26 9 27 0 23 -13 -6z"/>
<path d="M962 1140 c0 -14 2 -19 5 -12 2 6 2 18 0 25 -3 6 -5 1 -5 -13z"/>
<path d="M791 1140 c-1 -22 15 -44 28 -36 6 4 11 16 11 27 0 11 -5 17 -10 14
-6 -4 -8 -11 -5 -16 4 -5 2 -9 -4 -9 -5 0 -12 8 -14 18 -3 12 -5 13 -6 2z"/>
<path d="M230 1056 c0 -38 10 -56 41 -72 27 -13 43 -4 19 11 -6 4 -18 24 -27
46 -17 44 -33 51 -33 15z"/>
<path d="M1357 1041 c-9 -22 -21 -42 -27 -46 -24 -15 -8 -24 19 -11 31 16 41
34 41 72 0 36 -16 29 -33 -15z"/>
<path d="M670 1044 c0 -6 7 -19 16 -30 14 -18 14 -18 3 6 -14 31 -19 36 -19
24z"/>
<path d="M931 1023 c-10 -26 -10 -27 4 -9 8 11 15 23 15 28 0 15 -7 8 -19 -19z"/>
<path d="M821 1021 c-14 -26 5 -40 25 -19 13 13 13 16 0 27 -12 10 -17 9 -25
-8z m24 -11 c-3 -5 -11 -10 -16 -10 -6 0 -7 5 -4 10 3 6 11 10 16 10 6 0 7 -4
4 -10z"/>
<path d="M220 980 c0 -10 41 -30 58 -30 10 1 -39 40 -49 40 -5 0 -9 -5 -9 -10z"/>
<path d="M700 986 c0 -2 8 -10 18 -17 15 -13 16 -12 3 4 -13 16 -21 21 -21 13z"/>
<path d="M899 973 c-13 -16 -12 -17 4 -4 9 7 17 15 17 17 0 8 -8 3 -21 -13z"/>
<path d="M1360 970 c-28 -22 -24 -25 14 -10 14 5 26 14 26 20 0 15 -12 12 -40
-10z"/>
<path d="M452 739 c2 -103 6 -133 17 -137 11 -4 13 4 8 42 -8 60 17 65 33 7 5
-21 17 -44 25 -51 17 -14 40 -3 27 13 -5 7 -13 26 -16 43 -4 18 -15 39 -26 49
-18 16 -18 18 2 61 21 48 21 95 1 102 -9 2 -13 -6 -13 -25 0 -39 -19 -103 -30
-103 -6 0 -10 27 -10 59 0 33 -5 63 -10 66 -7 4 -10 -37 -8 -126z"/>
<path d="M601 783 c-7 -48 -17 -93 -22 -99 -7 -8 -7 -14 0 -18 6 -4 8 -20 4
-36 -7 -37 14 -41 23 -4 5 20 12 24 33 22 18 -2 27 -10 29 -24 4 -25 31 -32
107 -24 42 4 50 8 53 28 3 23 -7 29 -24 13 -5 -4 -21 -11 -36 -15 l-28 -6 51
102 c45 93 57 139 37 138 -5 0 -31 0 -58 0 -48 0 -50 -1 -40 -21 9 -16 17 -19
41 -14 16 4 29 3 29 0 0 -4 -21 -52 -47 -107 -30 -64 -49 -94 -54 -86 -4 7
-12 57 -18 110 -13 117 -17 128 -45 128 -20 0 -23 -8 -35 -87z m54 -41 c7 -59
6 -64 -11 -60 -24 4 -28 26 -19 96 8 68 20 54 30 -36z"/>
<path d="M882 806 c-7 -35 -12 -75 -12 -90 0 -14 -3 -26 -7 -26 -5 0 -8 -20
-8 -45 0 -47 21 -64 27 -22 5 33 55 37 60 5 2 -13 11 -24 22 -26 14 -3 17 0
12 13 -3 9 -11 60 -17 112 -12 113 -22 143 -47 143 -15 0 -21 -13 -30 -64z
m57 -114 c1 -8 -8 -12 -21 -10 -21 3 -23 7 -20 58 5 93 14 102 28 30 7 -36 13
-71 13 -78z"/>
<path d="M990 736 c5 -118 7 -131 24 -134 16 -4 18 0 12 32 -9 47 13 49 35 3
15 -30 59 -51 59 -28 0 6 -4 11 -8 11 -5 0 -16 17 -25 38 -16 37 -16 40 3 77
25 49 25 62 0 102 -17 29 -24 32 -62 31 l-43 -2 5 -130z m64 98 c20 -20 21
-83 0 -112 -26 -37 -34 -25 -34 53 0 76 6 87 34 59z"/>
<path d="M1140 736 c0 -74 4 -137 9 -141 5 -3 11 -2 13 2 8 17 -4 273 -13 273
-5 0 -9 -59 -9 -134z"/>
<path d="M557 534 c-9 -9 -9 -108 -1 -117 8 -8 34 3 34 14 0 5 -6 8 -12 7 -17
-4 -23 71 -8 86 8 8 10 7 5 -5 -4 -10 -1 -20 5 -24 8 -5 11 0 8 16 -3 23 -19
35 -31 23z"/>
<path d="M606 518 c-9 -35 -7 -67 5 -90 11 -21 12 -21 25 -3 20 27 18 101 -2
109 -22 8 -21 9 -28 -16z m34 -37 c0 -22 -4 -43 -10 -46 -6 -4 -10 12 -10 39
0 25 5 46 10 46 6 0 10 -18 10 -39z"/>
<path d="M661 483 c-1 -59 0 -63 22 -63 18 0 19 2 7 10 -9 5 -14 21 -12 37 2
16 -1 40 -7 53 -8 21 -10 14 -10 -37z"/>
<path d="M718 480 c3 -51 7 -60 23 -60 10 0 19 4 19 10 0 5 -7 7 -15 4 -12 -5
-15 4 -15 50 0 31 -3 56 -7 56 -5 0 -6 -27 -5 -60z"/>
<path d="M770 486 c0 -53 20 -91 35 -66 3 5 2 10 -3 10 -14 0 -13 93 1 102 8
5 4 8 -10 8 -21 0 -23 -5 -23 -54z"/>
<path d="M820 514 c-13 -33 1 -88 23 -92 11 -2 17 3 16 15 0 10 -3 13 -6 5 -9
-23 -23 -1 -23 38 0 43 16 63 23 28 4 -20 4 -19 6 5 1 35 -26 37 -39 1z"/>
<path d="M880 530 c8 -5 17 -32 20 -62 l6 -53 5 63 c4 61 3 62 -21 62 -19 0
-22 -2 -10 -10z"/>
<path d="M931 483 c0 -35 2 -63 7 -63 4 0 6 21 4 48 -5 75 -10 82 -11 15z"/>
<path d="M964 527 c-11 -29 0 -102 16 -102 21 0 36 49 24 82 -11 31 -31 41
-40 20z m31 -67 c-4 -17 -11 -28 -16 -24 -10 6 -12 45 -3 69 6 16 8 16 16 1 5
-9 6 -30 3 -46z"/>
<path d="M1022 480 c1 -50 2 -57 7 -30 l6 35 12 -32 c7 -18 14 -33 17 -33 4 0
5 28 4 63 -1 46 -2 52 -5 22 l-4 -39 -19 39 -18 40 0 -65z"/>
<path d="M248 365 c-16 -35 4 -78 34 -73 12 2 24 10 26 18 5 13 3 13 -11 1
-32 -26 -65 27 -35 57 7 7 44 12 97 12 l84 0 -21 -23 c-12 -13 -27 -37 -33
-55 -9 -27 -8 -37 8 -64 25 -43 48 -46 84 -12 26 24 32 27 49 16 11 -7 20 -8
20 -3 0 6 -8 15 -17 20 -15 9 -16 10 -2 11 9 0 28 -14 43 -31 21 -23 31 -28
39 -20 9 9 8 19 -3 39 -18 32 -69 42 -90 18 -17 -21 -30 -20 -30 3 0 10 -7 24
-15 31 -19 16 -45 -3 -45 -32 0 -20 26 -36 38 -23 4 4 1 10 -5 12 -7 3 -13 11
-13 20 0 23 25 9 28 -16 3 -21 -22 -61 -39 -61 -19 0 -39 34 -39 66 0 80 40
104 175 104 95 0 96 0 90 -22 -5 -20 -4 -21 5 -5 6 9 17 17 24 17 15 0 59 -45
76 -78 6 -13 14 -21 17 -18 3 3 -11 28 -31 56 l-36 50 41 0 c44 0 43 1 25 -55
-5 -15 -4 -15 5 3 7 12 15 22 19 22 4 0 12 -10 19 -22 9 -18 10 -18 5 -3 -14
43 -10 50 29 53 l38 3 -37 -51 c-20 -28 -34 -53 -31 -56 3 -3 11 5 17 18 17
33 61 78 76 78 7 0 18 -8 24 -17 9 -16 10 -15 5 5 -6 22 -5 22 90 22 135 0
175 -24 175 -104 0 -32 -20 -66 -39 -66 -17 0 -42 40 -39 61 3 26 28 39 28 15
0 -9 -5 -16 -12 -16 -9 0 -9 -3 -1 -11 6 -6 16 -8 22 -5 16 10 13 41 -4 56
-19 16 -45 -3 -45 -31 0 -23 -13 -24 -30 -3 -21 24 -72 14 -90 -18 -11 -20
-12 -30 -3 -39 8 -8 18 -3 39 20 15 17 34 31 43 31 14 -1 13 -2 -1 -11 -10 -5
-18 -14 -18 -20 0 -5 9 -4 20 3 17 11 23 8 49 -16 36 -34 59 -31 84 12 16 27
17 37 8 64 -6 18 -21 42 -33 55 l-21 23 91 0 c90 0 92 0 98 -26 9 -36 -17 -63
-42 -43 -15 12 -17 12 -12 -1 2 -8 14 -16 26 -18 30 -5 50 38 34 73 l-12 25
-550 0 -550 0 -12 -25z"/>
<path d="M337 363 c-4 -3 -7 -12 -7 -20 0 -11 4 -11 20 -1 11 7 20 16 20 20 0
10 -24 10 -33 1z"/>
<path d="M1250 363 c0 -4 9 -14 21 -21 18 -12 20 -11 17 5 -3 17 -38 32 -38
16z"/>
<path d="M273 345 c-3 -9 -2 -19 2 -23 4 -4 10 -1 12 6 3 6 9 10 14 6 5 -3 9
2 9 10 0 21 -29 21 -37 1z"/>
<path d="M373 338 c-26 -29 -41 -72 -22 -66 10 3 54 88 45 88 -1 0 -12 -10
-23 -22z"/>
<path d="M541 334 c-34 -29 -42 -51 -11 -32 15 10 26 10 53 0 44 -16 47 -15
47 7 0 18 -34 51 -51 51 -4 0 -21 -12 -38 -26z"/>
<path d="M1012 344 c-12 -8 -22 -24 -22 -35 0 -22 3 -23 47 -7 27 10 38 10 53
0 31 -19 23 3 -11 32 -36 30 -38 31 -67 10z"/>
<path d="M1238 321 c10 -25 24 -47 31 -49 20 -7 3 39 -26 68 l-24 25 19 -44z"/>
<path d="M1310 344 c0 -8 4 -13 9 -10 5 4 11 0 14 -6 2 -7 8 -10 12 -6 12 11
-2 38 -20 38 -8 0 -15 -7 -15 -16z"/>
<path d="M686 324 c-8 -22 2 -33 14 -14 8 13 10 12 10 -2 0 -21 -20 -24 -38
-6 -7 7 -12 8 -12 2 0 -16 22 -34 42 -34 27 0 58 -36 58 -69 0 -36 -25 -59
-48 -44 -23 14 -22 57 1 61 10 2 17 -3 17 -13 0 -9 -4 -14 -9 -10 -5 3 -12 1
-16 -5 -3 -5 3 -10 13 -10 27 0 37 30 17 49 -36 37 -75 -41 -39 -80 22 -24 29
-24 54 1 28 28 26 75 -4 105 -14 14 -26 37 -28 51 -4 32 -23 42 -32 18z"/>
<path d="M907 333 c-4 -3 -7 -17 -7 -29 0 -13 -11 -34 -25 -48 -31 -31 -33
-78 -5 -106 25 -25 32 -25 54 -1 36 39 -3 117 -39 80 -20 -19 -10 -49 17 -49
10 0 16 5 13 10 -4 6 -11 8 -16 5 -5 -4 -9 1 -9 10 0 10 7 15 18 13 22 -4 23
-47 0 -61 -23 -15 -48 8 -48 44 0 33 31 69 58 69 20 0 42 18 42 34 0 6 -5 5
-12 -2 -18 -18 -38 -15 -38 6 0 14 2 15 10 2 11 -18 23 -8 14 14 -6 17 -16 20
-27 9z"/>
<path d="M781 258 c-1 -4 4 -18 10 -32 10 -20 9 -30 -5 -51 -10 -15 -16 -29
-13 -31 2 -2 10 7 17 21 7 14 16 25 20 25 4 0 13 -11 20 -25 7 -14 15 -23 17
-21 3 2 -3 16 -13 31 -14 21 -15 30 -5 52 6 14 10 28 7 30 -2 2 -7 -5 -11 -16
-8 -27 -19 -27 -33 2 -6 12 -11 19 -11 15z"/>
<path d="M511 216 c-16 -19 -8 -46 13 -46 16 0 41 38 32 48 -3 3 -6 -1 -6 -8
0 -10 -4 -8 -13 4 -12 16 -14 16 -26 2z m26 -32 c-9 -9 -28 6 -21 18 4 6 10 6
17 -1 6 -6 8 -13 4 -17z"/>
<path d="M1084 217 c-3 -9 -11 -14 -16 -11 -6 4 -5 -3 1 -15 7 -11 18 -21 27
-21 22 0 29 29 11 48 -15 14 -17 14 -23 -1z m17 -30 c-13 -13 -26 -3 -16 12 3
6 11 8 17 5 6 -4 6 -10 -1 -17z"/>
<path d="M797 154 c-4 -4 -7 -23 -7 -41 0 -21 -4 -32 -10 -28 -6 4 -2 -10 7
-29 19 -37 33 -46 33 -22 0 7 7 19 15 26 16 13 21 35 6 25 -6 -3 -11 11 -13
32 -3 35 -17 51 -31 37z"/>
<path d="M761 114 c0 -11 3 -14 6 -6 3 7 2 16 -1 19 -3 4 -6 -2 -5 -13z"/>
<path d="M851 114 c0 -11 3 -14 6 -6 3 7 2 16 -1 19 -3 4 -6 -2 -5 -13z"/>
</g>
</svg>
